<svg width="2048" height="1228" viewBox="0 0 2048 1228" fill="none" xmlns="http://www.w3.org/2000/svg">
<path d="M416.5 778.5V73H2047.5L2046 1069H691L694.5 968.5C705.5 960 700 942.5 702.5 940.5C704.5 938.9 706 932.5 706.5 929.5C710 926.5 710.5 920 711.5 917.5C711.832 916.67 715.833 916 717.5 915.5C722 905.5 728.5 905 732.5 903.5C733.85 902.994 741 902.167 744.5 902C748.1 894.4 741 880.5 738 877.5C739.6 876.3 742 874 744 871C743.2 854.6 728 836 721 827C714.2 796.6 692 775.5 681.5 771.5C674.7 763.5 663 759 658 757.5C636.4 754.3 622.5 754 619.5 756C598 753.5 564.5 771 547.5 779H435C434 779 431.5 781 431.5 780.5C431.5 780.1 430.167 779 429.5 778.5H416.5Z" fill="white"/>
</svg>
