<svg width="765" height="491" viewBox="0 0 765 491" fill="none" xmlns="http://www.w3.org/2000/svg">
<path fill-rule="evenodd" clip-rule="evenodd" d="M262.917 2.45218C277.287 0.432206 298.537 -1.3068 320.093 1.35935C341.642 4.02476 363.56 11.1011 379.192 26.7703C382.663 30.2493 386.735 34.9582 391.116 40.1202C395.503 45.2885 400.205 50.917 404.955 56.2581C409.705 61.5994 414.49 66.6394 419.034 70.629C423.591 74.6286 427.857 77.5278 431.569 78.6492C434.968 79.6763 439.567 78.8054 445.062 76.6185C450.532 74.4412 456.778 71.0074 463.415 67.0611C476.657 59.1884 491.459 49.2688 504.514 43.4726C529.953 32.1781 550.615 23.7357 574.106 21.6253C597.606 19.5141 623.889 23.7426 660.593 37.6821C690.993 49.2276 736.609 82.5909 754.946 137.83C774.005 195.247 766.128 286.179 729.943 355.217C703.181 406.276 644.273 464.244 578.195 482.621C544.194 492.078 521.188 492.637 500.453 487.387L500.448 487.386C497.161 486.522 495.479 484.739 495.062 482.616C494.655 480.544 495.488 478.302 496.875 476.54C497.357 475.926 498.79 474.369 500.932 472.072C503.087 469.761 505.975 466.685 509.405 463.002C516.26 455.64 525.256 445.876 534.748 435.078C553.746 413.468 574.69 387.769 584.486 368.92C616.135 308.017 620.251 248.505 605.415 203.15C590.58 157.798 556.813 126.618 512.649 122.23C502.074 121.179 489.936 121.737 479.391 124.494C468.829 127.256 459.969 132.195 455.788 139.821C449.866 150.623 446.952 165.226 445.603 182.208C444.255 199.182 444.474 218.47 444.775 238.618C445.377 278.877 446.312 322.576 435.641 357.752C421.271 405.117 390.059 460.457 324.816 485.757C300.199 495.303 257.497 492.619 222.333 471.004C212.342 464.862 205.477 454.174 202.922 437.894C200.37 421.628 202.113 399.747 209.347 371.134C212.668 357.998 217.801 338.377 224.924 319.356C232.041 300.354 241.173 281.867 252.529 271.061C258.208 265.657 264.273 263.946 269.619 262.207C274.973 260.464 279.578 258.702 282.722 253.314C284.663 249.987 286.437 243.927 287.697 235.978C288.954 228.047 289.69 218.291 289.584 207.612C289.372 186.248 285.792 161.236 276.319 139.781C272.218 130.492 257.633 114.352 230.583 114.352C222.326 114.352 212.015 117.148 200.474 122.727C188.941 128.303 176.209 136.644 163.121 147.693C136.944 169.791 109.359 202.702 87.0746 245.934C68.6797 281.621 56.6826 315.949 47.5832 345.46C38.4937 374.94 32.2756 399.696 25.4628 416.117C23.9248 419.824 21.5922 424.282 18.723 427.98C15.8689 431.659 12.4087 434.683 8.5931 435.349C7.42512 435.553 6.26831 435.333 5.21024 434.614C4.16431 433.904 3.24387 432.726 2.48111 431.064C0.958978 427.746 2.0962e-05 422.353 0 414.342C0 379.329 9.54315 333.696 22.4795 289.943C35.4179 246.183 51.7656 204.255 65.4035 176.641C110.702 84.9216 175.947 14.6778 262.917 2.45218ZM276.468 286.532C275.472 286.063 274.311 285.941 272.999 286.157C271.681 286.375 270.333 287.084 268.979 288.166C267.623 289.25 266.229 290.733 264.816 292.544C261.99 296.165 259.043 301.151 256.113 307.035C250.252 318.808 244.425 334.25 239.744 349.754C235.063 365.256 231.52 380.849 230.24 392.921C229.601 398.952 229.522 404.138 230.165 408.005C230.798 411.821 232.177 414.586 234.673 415.368C235.319 415.57 236.082 415.747 236.969 415.62C237.86 415.492 238.819 415.067 239.886 414.17C241.995 412.395 244.608 408.697 248.066 401.431C257.204 382.229 268.505 352.757 275.065 328.48C278.343 316.35 280.45 305.474 280.494 297.814C280.515 293.996 280.026 290.895 278.846 288.835C278.249 287.793 277.465 287.001 276.468 286.532Z" fill="white"/>
<path fill-rule="evenodd" clip-rule="evenodd" d="M262.917 2.45218C277.287 0.432206 298.537 -1.3068 320.093 1.35935C341.642 4.02476 363.56 11.1011 379.192 26.7703C382.663 30.2493 386.735 34.9582 391.116 40.1202C395.503 45.2885 400.205 50.917 404.955 56.2581C409.705 61.5994 414.49 66.6394 419.034 70.629C423.591 74.6286 427.857 77.5278 431.569 78.6492C434.968 79.6763 439.567 78.8054 445.062 76.6185C450.532 74.4412 456.778 71.0074 463.415 67.0611C476.657 59.1884 491.459 49.2688 504.514 43.4726C529.953 32.1781 550.615 23.7357 574.106 21.6253C597.606 19.5141 623.889 23.7426 660.593 37.6821C690.993 49.2276 736.609 82.5909 754.946 137.83C774.005 195.247 766.128 286.179 729.943 355.217C703.181 406.276 644.273 464.244 578.195 482.621C544.194 492.078 521.188 492.637 500.453 487.387L500.448 487.386C497.161 486.522 495.479 484.739 495.062 482.616C494.655 480.544 495.488 478.302 496.875 476.54C497.357 475.926 498.79 474.369 500.932 472.072C503.087 469.761 505.975 466.685 509.405 463.002C516.26 455.64 525.256 445.876 534.748 435.078C553.746 413.468 574.69 387.769 584.486 368.92C616.135 308.017 620.251 248.505 605.415 203.15C590.58 157.798 556.813 126.618 512.649 122.23C502.074 121.179 489.936 121.737 479.391 124.494C468.829 127.256 459.969 132.195 455.788 139.821C449.866 150.623 446.952 165.226 445.603 182.208C444.255 199.182 444.474 218.47 444.775 238.618C445.377 278.877 446.312 322.576 435.641 357.752C421.271 405.117 390.059 460.457 324.816 485.757C300.199 495.303 257.497 492.619 222.333 471.004C212.342 464.862 205.477 454.174 202.922 437.894C200.37 421.628 202.113 399.747 209.347 371.134C212.668 357.998 217.801 338.377 224.924 319.356C232.041 300.354 241.173 281.867 252.529 271.061C258.208 265.657 264.273 263.946 269.619 262.207C274.973 260.464 279.578 258.702 282.722 253.314C284.663 249.987 286.437 243.927 287.697 235.978C288.954 228.047 289.69 218.291 289.584 207.612C289.372 186.248 285.792 161.236 276.319 139.781C272.218 130.492 257.633 114.352 230.583 114.352C222.326 114.352 212.015 117.148 200.474 122.727C188.941 128.303 176.209 136.644 163.121 147.693C136.944 169.791 109.359 202.702 87.0746 245.934C68.6797 281.621 56.6826 315.949 47.5832 345.46C38.4937 374.94 32.2756 399.696 25.4628 416.117C23.9248 419.824 21.5922 424.282 18.723 427.98C15.8689 431.659 12.4087 434.683 8.5931 435.349C7.42512 435.553 6.26831 435.333 5.21024 434.614C4.16431 433.904 3.24387 432.726 2.48111 431.064C0.958978 427.746 2.0962e-05 422.353 0 414.342C0 379.329 9.54315 333.696 22.4795 289.943C35.4179 246.183 51.7656 204.255 65.4035 176.641C110.702 84.9216 175.947 14.6778 262.917 2.45218ZM276.468 286.532C275.472 286.063 274.311 285.941 272.999 286.157C271.681 286.375 270.333 287.084 268.979 288.166C267.623 289.25 266.229 290.733 264.816 292.544C261.99 296.165 259.043 301.151 256.113 307.035C250.252 318.808 244.425 334.25 239.744 349.754C235.063 365.256 231.52 380.849 230.24 392.921C229.601 398.952 229.522 404.138 230.165 408.005C230.798 411.821 232.177 414.586 234.673 415.368C235.319 415.57 236.082 415.747 236.969 415.62C237.86 415.492 238.819 415.067 239.886 414.17C241.995 412.395 244.608 408.697 248.066 401.431C257.204 382.229 268.505 352.757 275.065 328.48C278.343 316.35 280.45 305.474 280.494 297.814C280.515 293.996 280.026 290.895 278.846 288.835C278.249 287.793 277.465 287.001 276.468 286.532Z" fill="#FFFCFC"/>
<path fill-rule="evenodd" clip-rule="evenodd" d="M262.917 2.45218C277.287 0.432206 298.537 -1.3068 320.093 1.35935C341.642 4.02476 363.56 11.1011 379.192 26.7703C382.663 30.2493 386.735 34.9582 391.116 40.1202C395.503 45.2885 400.205 50.917 404.955 56.2581C409.705 61.5994 414.49 66.6394 419.034 70.629C423.591 74.6286 427.857 77.5278 431.569 78.6492C434.968 79.6763 439.567 78.8054 445.062 76.6185C450.532 74.4412 456.778 71.0074 463.415 67.0611C476.657 59.1884 491.459 49.2688 504.514 43.4726C529.953 32.1781 550.615 23.7357 574.106 21.6253C597.606 19.5141 623.889 23.7426 660.593 37.6821C690.993 49.2276 736.609 82.5909 754.946 137.83C774.005 195.247 766.128 286.179 729.943 355.217C703.181 406.276 644.273 464.244 578.195 482.621C544.194 492.078 521.188 492.637 500.453 487.387L500.448 487.386C497.161 486.522 495.479 484.739 495.062 482.616C494.655 480.544 495.488 478.302 496.875 476.54C497.357 475.926 498.79 474.369 500.932 472.072C503.087 469.761 505.975 466.685 509.405 463.002C516.26 455.64 525.256 445.876 534.748 435.078C553.746 413.468 574.69 387.769 584.486 368.92C616.135 308.017 620.251 248.505 605.415 203.15C590.58 157.798 556.813 126.618 512.649 122.23C502.074 121.179 489.936 121.737 479.391 124.494C468.829 127.256 459.969 132.195 455.788 139.821C449.866 150.623 446.952 165.226 445.603 182.208C444.255 199.182 444.474 218.47 444.775 238.618C445.377 278.877 446.312 322.576 435.641 357.752C421.271 405.117 390.059 460.457 324.816 485.757C300.199 495.303 257.497 492.619 222.333 471.004C212.342 464.862 205.477 454.174 202.922 437.894C200.37 421.628 202.113 399.747 209.347 371.134C212.668 357.998 217.801 338.377 224.924 319.356C232.041 300.354 241.173 281.867 252.529 271.061C258.208 265.657 264.273 263.946 269.619 262.207C274.973 260.464 279.578 258.702 282.722 253.314C284.663 249.987 286.437 243.927 287.697 235.978C288.954 228.047 289.69 218.291 289.584 207.612C289.372 186.248 285.792 161.236 276.319 139.781C272.218 130.492 257.633 114.352 230.583 114.352C222.326 114.352 212.015 117.148 200.474 122.727C188.941 128.303 176.209 136.644 163.121 147.693C136.944 169.791 109.359 202.702 87.0746 245.934C68.6797 281.621 56.6826 315.949 47.5832 345.46C38.4937 374.94 32.2756 399.696 25.4628 416.117C23.9248 419.824 21.5922 424.282 18.723 427.98C15.8689 431.659 12.4087 434.683 8.5931 435.349C7.42512 435.553 6.26831 435.333 5.21024 434.614C4.16431 433.904 3.24387 432.726 2.48111 431.064C0.958978 427.746 2.0962e-05 422.353 0 414.342C0 379.329 9.54315 333.696 22.4795 289.943C35.4179 246.183 51.7656 204.255 65.4035 176.641C110.702 84.9216 175.947 14.6778 262.917 2.45218ZM276.468 286.532C275.472 286.063 274.311 285.941 272.999 286.157C271.681 286.375 270.333 287.084 268.979 288.166C267.623 289.25 266.229 290.733 264.816 292.544C261.99 296.165 259.043 301.151 256.113 307.035C250.252 318.808 244.425 334.25 239.744 349.754C235.063 365.256 231.52 380.849 230.24 392.921C229.601 398.952 229.522 404.138 230.165 408.005C230.798 411.821 232.177 414.586 234.673 415.368C235.319 415.57 236.082 415.747 236.969 415.62C237.86 415.492 238.819 415.067 239.886 414.17C241.995 412.395 244.608 408.697 248.066 401.431C257.204 382.229 268.505 352.757 275.065 328.48C278.343 316.35 280.45 305.474 280.494 297.814C280.515 293.996 280.026 290.895 278.846 288.835C278.249 287.793 277.465 287.001 276.468 286.532Z" fill="#FB1F00"/>
</svg>
